<?xml version="1.0" encoding="UTF-8" standalone="no"?>
<svg xmlns="http://www.w3.org/2000/svg" version="1.1" width="111.023mm" height="154.000mm" viewBox="0 0 31 43">
<path style="fill: none; stroke: #F4F4F4; stroke-width: 0.3536; stroke-linecap: round; stroke-linejoin: round;" d="M 16,27 L 15,28 M 12,3 L 11,4 M 27,18 L 27,19 M 17,21 L 16,22 M 15,10 L 14,11 M 11,14 L 11,15 M 1,38 L 0,39 M 3,23 L 2,24 M 4,10 L 5,10 M 13,8 L 12,9 M 3,7 L 2,8 M 15,25 L 15,26 M 6,13 L 6,14 M 1,23 L 0,24 M 29,1 L 30,1 M 4,10 L 3,11 M 6,20 L 7,20 M 17,11 L 16,12 M 24,4 L 23,5 M 2,18 L 3,19 M 10,0 L 9,1 M 16,7 L 15,8 M 12,30 L 11,31 M 27,12 L 26,13 M 12,20 L 11,21 M 2,32 L 1,33 M 11,1 L 11,2 M 12,3 L 13,4 M 28,16 L 28,17 M 12,41 L 11,42 M 11,11 L 11,12 M 16,13 L 15,14 M 26,29 L 25,30 M 8,10 L 9,10 M 17,37 L 16,38 M 2,40 L 1,41 M 2,28 L 3,29 M 28,37 L 29,37 M 24,10 L 23,11 M 21,22 L 22,22 M 20,32 L 19,33 M 11,16 L 12,16 M 18,14 L 18,15 M 14,41 L 13,42 M 4,40 L 3,41 M 27,35 L 26,36 M 16,4 L 15,5 M 13,20 L 13,21 M 25,15 L 26,15 M 5,21 L 4,22 M 28,8 L 27,9 M 3,4 L 4,4 M 5,27 L 5,28 M 11,8 L 10,9 M 13,34 L 12,35 M 7,25 L 6,26 M 13,37 L 12,38 M 19,5 L 18,6 M 21,11 L 20,12 M 12,16 L 12,17 M 15,39 L 14,40 M 20,9 L 19,10 M 25,12 L 26,12 M 22,0 L 21,1 M 26,10 L 25,11 M 4,5 L 3,6 M 27,27 L 26,28 M 6,22 L 5,23 M 2,4 L 1,5 M 24,15 L 23,16 M 18,0 L 17,1 M 17,10 L 17,11 M 2,14 L 1,15 M 19,17 L 18,18 M 24,1 L 23,2 M 20,1 L 19,2 M 21,37 L 20,38 M 15,41 L 16,42 M 19,0 L 19,1 M 22,4 L 21,5 M 4,6 L 3,7 M 26,2 L 26,3 M 25,25 L 24,26 M 8,22 L 8,23 M 11,19 L 10,20 M 9,18 L 8,19 M 13,13 L 14,13 M 15,9 L 15,10 M 9,14 L 8,15 M 11,21 L 10,22 M 16,9 L 15,10 M 28,39 L 29,39 M 18,10 L 19,10 M 31,8 L 30,9 M 9,36 L 10,36 M 1,20 L 0,21 M 14,21 L 13,22 M 11,7 L 12,7 M 14,12 L 14,13 M 31,26 L 31,27 M 25,40 L 24,41 M 21,1 L 21,2 M 23,14 L 22,15 M 31,5 L 31,6 M 30,10 L 30,11 M 29,13 L 28,14 M 30,14 L 29,15 M 6,6 L 5,7 M 22,17 L 21,18 M 3,13 L 2,14 M 3,15 L 4,15 M 26,0 L 27,0 M 10,22 L 9,23 M 26,22 L 25,23 M 20,12 L 21,12 M 0,9 L 0,10 M 13,32 L 12,33 M 14,1 L 15,1 M 10,4 L 11,4 M 5,28 L 4,29 M 5,5 L 5,6 M 20,22 L 21,22 M 9,1 L 10,2 M 16,3 L 15,4 M 29,6 L 28,7 M 0,20 L 1,20 M 2,1 L 1,2 M 11,5 L 10,6 M 29,30 L 28,31 M 7,24 L 6,25 M 30,5 L 29,6 M 4,39 L 3,40 M 26,19 L 25,20 M 23,25 L 22,26 M 11,30 L 12,30 M 16,13 L 17,13 M 11,21 L 11,22 M 10,33 L 11,33 M 8,32 L 8,33 M 4,7 L 3,8 M 4,4 L 3,5 M 8,6 L 7,7 M 20,25 L 19,26 M 7,15 L 6,16 M 26,8 L 25,9 M 7,5 L 8,6 M 27,40 L 26,41 M 0,13 L 0,14 M 7,4 L 7,5 M 12,28 L 13,28 M 23,23 L 23,24 M 2,20 L 1,21 M 29,29 L 28,30 M 3,27 L 3,28 M 28,37 L 27,38 M 20,17 L 20,18 M 18,7 L 17,8 M 4,4 L 5,4 M 25,1 L 26,2 M 4,6 L 5,7 M 22,27 L 23,27 M 18,1 L 18,2 M 7,16 L 6,17 M 11,31 L 10,32 M 12,11 L 12,12 M 21,8 L 22,8 M 28,34 L 27,35 M 16,17 L 15,18 M 19,25 L 19,26 M 22,26 L 22,27 M 3,38 L 2,39 M 13,2 L 12,3 M 1,23 L 2,23 M 25,18 L 25,19 M 5,14 L 4,15 M 26,2 L 25,3 M 10,20 L 9,21 M 5,6 L 5,7 M 7,27 L 6,28 M 19,0 L 20,0 M 22,24 L 21,25 M 21,28 L 21,29 M 6,7 L 7,7 M 23,41 L 24,41 M 30,25 L 29,26 M 0,29 L 0,30 M 0,41 L 0,42 M 16,12 L 15,13 M 13,19 L 13,20 M 5,38 L 4,39 M 28,4 L 28,5 M 10,19 L 10,20 M 2,31 L 2,32 M 2,32 L 3,33 M 1,11 L 0,12 M 9,34 L 8,35 M 22,15 L 22,16 M 10,11 L 11,12 M 6,39 L 6,40 M 22,11 L 21,12 M 1,17 L 1,18 M 31,33 L 30,34 M 7,31 L 6,32 M 17,22 L 16,23 M 23,34 L 22,35 M 13,23 L 14,23 M 27,0 L 26,1 M 19,31 L 18,32 M 0,35 L 1,35 M 13,20 L 12,21 M 25,15 L 24,16 M 22,24 L 23,24 M 9,38 L 10,38 M 1,13 L 1,14 M 4,31 L 4,32 M 5,10 L 5,11 M 27,11 L 27,12 M 16,20 L 15,21 M 16,0 L 15,1 M 22,35 L 21,36 M 0,13 L 1,13 M 11,1 L 12,1 M 19,1 L 18,2 M 13,17 L 14,17 M 15,4 L 14,5 M 23,9 L 22,10 M 7,2 L 6,3 M 25,23 L 24,24 M 18,33 L 17,34 M 8,39 L 9,40 M 11,21 L 12,21 M 23,0 L 23,1 M 13,28 L 14,28 M 6,26 L 6,27 M 9,31 L 8,32 M 12,9 L 11,10 M 6,29 L 5,30 M 4,1 L 5,1 M 3,27 L 4,27 M 9,8 L 9,9 M 4,24 L 3,25 M 30,20 L 29,21 M 1,15 L 0,16 M 24,34 L 23,35 M 15,32 L 14,33 M 28,28 L 27,29 M 15,15 L 14,16 M 27,5 L 28,5 M 13,28 L 12,29 M 13,7 L 13,8 M 28,23 L 27,24 M 22,29 L 23,30 M 22,22 L 21,23 M 8,37 L 7,38 M 19,38 L 18,39 M 7,42 L 6,43 M 25,9 L 24,10 M 1,39 L 2,39 M 5,15 L 4,16 M 23,5 L 22,6 M 20,23 L 21,23 M 5,35 L 4,36 M 2,40 L 3,40 M 6,31 L 5,32 M 16,26 L 16,27 M 1,11 L 1,12 M 25,30 L 24,31 M 5,23 L 6,24 M 22,33 L 21,34 M 20,18 L 19,19 M 6,28 L 6,29 M 21,6 L 20,7 M 19,19 L 18,20 M 24,15 L 24,16 M 4,33 L 4,34 M 29,11 L 29,12 M 27,6 L 26,7 M 27,8 L 26,9 M 3,9 L 2,10 M 6,2 L 6,3 M 20,17 L 21,18 M 30,1 L 29,2 M 7,3 L 6,4 M 18,38 L 17,39 M 6,2 L 5,3 M 8,26 L 7,27 M 9,24 L 8,25 M 16,14 L 15,15 M 2,25 L 1,26 M 7,6 L 6,7 M 1,22 L 0,23 M 5,9 L 5,10 M 11,2 L 10,3 M 11,42 L 10,43 M 11,15 L 12,16 M 26,5 L 25,6 M 2,7 L 2,8 M 25,0 L 25,1 M 1,9 L 0,10 M 14,24 L 13,25 M 16,29 L 15,30 M 3,11 L 2,12 M 6,14 L 7,15 M 1,17 L 2,18 M 22,18 L 21,19 M 4,18 L 5,18 M 4,36 L 5,36 M 4,3 L 3,4 M 28,7 L 27,8 M 18,32 L 19,33 M 14,6 L 13,7 M 24,19 L 23,20 M 11,4 L 10,5 M 20,6 L 21,6 M 30,20 L 31,20 M 8,41 L 8,42 M 3,8 L 2,9 M 16,19 L 16,20 M 0,32 L 0,33 M 2,21 L 1,22 M 0,37 L 1,37 M 4,1 L 3,2 M 22,30 L 21,31 M 9,9 L 8,10 M 15,17 L 16,17 M 5,17 L 6,17 M 2,37 L 1,38 M 12,2 L 11,3 M 15,26 L 16,26 M 28,10 L 27,11 M 1,16 L 0,17 M 17,31 L 16,32 M 12,36 L 11,37 M 6,1 L 5,2 M 29,22 L 29,23 M 23,13 L 22,14 M 7,11 L 6,12 M 15,32 L 16,32 M 6,10 L 6,11 M 24,17 L 23,18 M 31,37 L 30,38 M 11,10 L 12,11 M 28,17 L 27,18 M 5,32 L 6,33 M 1,8 L 0,9 M 16,28 L 17,28 M 31,3 L 30,4 M 26,24 L 25,25 M 25,9 L 26,9 M 17,25 L 16,26 M 2,0 L 2,1 M 12,12 L 12,13 M 4,0 L 3,1 M 30,16 L 29,17 M 29,26 L 28,27 M 11,0 L 10,1 M 8,41 L 7,42 M 20,10 L 20,11 M 16,38 L 15,39 M 20,6 L 19,7 M 15,14 L 16,14 M 25,33 L 26,34 M 14,11 L 13,12 M 24,5 L 23,6 M 1,3 L 1,4 M 14,24 L 14,25 M 1,21 L 2,21 M 29,40 L 28,41 M 26,31 L 25,32 M 12,4 L 11,5 M 25,12 L 25,13 M 1,5 L 0,6 M 20,21 L 20,22 M 14,13 L 13,14 M 31,26 L 30,27 M 22,8 L 21,9 M 13,42 L 12,43 M 23,7 L 22,8 M 7,7 L 6,8 M 18,4 L 18,5 M 29,29 L 29,30 M 24,8 L 24,9 M 7,0 L 6,1 M 17,6 L 16,7 M 5,17 L 6,18 M 2,10 L 3,10 M 13,0 L 13,1 M 22,10 L 21,11 M 17,30 L 16,31 M 26,3 L 25,4 M 1,16 L 1,17 M 17,0 L 17,1 M 2,6 L 1,7 M 30,28 L 29,29 M 30,19 L 29,20 M 6,24 L 6,25 M 1,24 L 0,25 M 20,16 L 20,17 M 24,29 L 23,30 M 16,8 L 15,9 M 3,4 L 2,5 M 26,21 L 26,22 M 16,24 L 15,25 M 14,2 L 13,3 M 11,16 L 10,17 M 27,42 L 27,43 M 22,8 L 22,9 M 11,6 L 10,7 M 27,20 L 26,21 M 15,11 L 16,11 M 3,3 L 2,4 M 4,0 L 5,0 M 13,18 L 13,19 M 3,5 L 2,6 M 22,14 L 22,15 M 8,3 L 8,4 M 12,36 L 13,36 M 8,38 L 9,38 M 1,35 L 2,35 M 8,0 L 9,0 M 9,12 L 10,12 M 2,8 L 3,8 M 5,0 L 4,1 M 12,3 L 12,4 M 30,4 L 30,5 M 28,15 L 28,16 M 25,27 L 24,28 M 1,10 L 0,11 M 5,10 L 4,11 M 30,42 L 29,43 M 5,3 L 4,4 M 31,7 L 30,8 M 31,7 L 31,8 M 6,16 L 6,17 M 26,41 L 25,42 M 18,29 L 19,29 M 8,15 L 8,16 M 0,41 L 1,41 M 3,10 L 4,10 M 6,24 L 5,25 M 22,7 L 22,8 M 2,36 L 1,37 M 13,14 L 13,15 M 3,11 L 3,12 M 4,12 L 4,13 M 5,18 L 4,19 M 4,7 L 4,8 M 4,13 L 3,14 M 19,21 L 18,22 M 3,33 L 4,33 M 1,6 L 1,7 M 25,0 L 24,1 M 4,29 L 4,30 M 23,10 L 22,11 M 4,36 L 3,37 M 4,30 L 5,30 M 12,29 L 11,30 M 25,21 L 26,21 M 8,26 L 8,27 M 11,14 L 12,14 M 15,10 L 16,11 M 31,4 L 31,5 M 8,28 L 9,28 M 21,4 L 20,5 M 8,30 L 7,31 M 13,16 L 13,17 M 15,0 L 14,1 M 3,6 L 2,7 M 7,40 L 6,41 M 15,34 L 14,35 M 1,29 L 2,29 M 7,36 L 6,37 M 10,2 L 11,2 M 29,33 L 28,34 M 17,17 L 17,18 M 3,17 L 2,18 M 16,40 L 15,41 M 18,23 L 17,24 M 17,8 L 16,9 M 25,25 L 25,26 M 8,18 L 7,19 M 10,25 L 9,26 M 27,25 L 26,26 M 16,22 L 17,22 M 22,21 L 22,22 M 15,9 L 14,10 M 29,21 L 29,22 M 19,12 L 19,13 M 0,18 L 1,18 M 28,13 L 28,14 M 0,31 L 1,31 M 3,22 L 2,23 M 13,37 L 14,37 M 3,26 L 2,27 M 19,9 L 19,10 M 23,24 L 24,24 M 8,12 L 9,12 M 19,28 L 20,28 M 1,3 L 0,4 M 11,18 L 10,19 M 8,21 L 7,22 M 19,28 L 18,29 M 0,11 L 1,11 M 15,14 L 14,15 M 1,18 L 1,19 M 16,0 L 17,1 M 1,27 L 0,28 M 24,7 L 25,7 M 26,6 L 26,7 M 14,15 L 13,16 M 28,31 L 27,32 M 23,12 L 24,12 M 19,5 L 20,6 M 17,15 L 16,16 M 21,13 L 20,14 M 2,30 L 1,31 M 28,11 L 29,11 M 22,42 L 23,43 M 16,31 L 16,32 M 9,24 L 10,24 M 18,22 L 18,23 M 5,5 L 6,5 M 6,20 L 5,21 M 1,10 L 2,10 M 5,1 L 4,2 M 6,15 L 5,16 M 10,2 L 9,3 M 29,17 L 29,18 M 9,20 L 8,21 M 10,30 L 11,30 M 8,13 L 9,13 M 31,29 L 30,30 M 20,22 L 19,23 M 9,26 L 10,26 M 8,19 L 8,20 M 11,0 L 12,1 M 13,40 L 14,40 M 31,1 L 31,2 M 23,32 L 22,33 M 2,28 L 1,29 M 20,31 L 20,32 M 23,0 L 22,1 M 20,34 L 21,34 M 2,9 L 1,10 M 8,19 L 7,20 M 25,21 L 24,22 M 10,18 L 10,19 M 4,22 L 3,23 M 21,14 L 20,15 M 17,12 L 16,13 M 16,15 L 17,15 M 22,13 L 22,14 M 20,2 L 21,2 M 13,9 L 12,10 M 30,7 L 30,8 M 2,1 L 2,2 M 16,2 L 15,3 M 11,28 L 10,29 M 2,6 L 3,6 M 27,31 L 28,31 M 6,39 L 5,40 M 24,38 L 23,39 M 31,2 L 31,3 M 27,3 L 28,3 M 28,3 L 29,3 M 19,15 L 20,15 M 27,2 L 26,3 M 8,8 L 9,9 M 6,33 L 7,33 M 9,23 L 10,23 M 8,12 L 7,13 M 26,16 L 25,17 M 7,23 L 7,24 M 7,2 L 8,3 M 5,9 L 6,9 M 6,0 L 6,1 M 17,24 L 17,25 M 20,25 L 21,26 M 9,36 L 8,37 M 5,12 L 6,12 M 26,31 L 27,31 M 15,3 L 16,3 M 1,33 L 0,34 M 31,2 L 30,3 M 15,2 L 15,3 M 18,13 L 19,13 M 14,28 L 15,28 M 1,27 L 2,27 M 15,5 L 14,6 M 2,42 L 2,43 M 27,6 L 28,7 M 9,1 L 9,2 M 8,8 L 7,9 M 1,26 L 1,27 M 30,14 L 31,15 M 26,13 L 26,14 M 3,41 L 2,42 M 1,31 L 2,31 M 23,28 L 22,29 M 29,9 L 28,10 M 21,12 L 21,13 M 29,22 L 28,23 M 4,39 L 5,40 M 28,39 L 27,40 M 28,14 L 27,15 M 7,35 L 7,36 M 13,7 L 12,8 M 15,18 L 14,19 M 14,7 L 13,8 M 13,23 L 12,24 M 5,20 L 4,21 M 13,8 L 14,8 M 3,28 L 3,29 M 9,4 L 10,5 M 4,13 L 4,14 M 3,16 L 2,17 M 20,30 L 20,31 M 24,9 L 23,10 M 8,30 L 9,31 M 15,1 L 16,1 M 9,34 L 10,34 M 18,20 L 17,21 M 6,32 L 6,33 M 8,14 L 7,15 M 21,8 L 20,9 M 28,0 L 29,0 M 2,3 L 1,4 M 19,35 L 20,35 M 3,12 L 2,13 M 18,27 L 17,28 M 4,42 L 3,43 M 9,6 L 8,7 M 0,33 L 1,33 M 11,24 L 12,24 M 3,15 L 3,16 M 24,14 L 24,15 M 18,42 L 17,43 M 24,26 L 23,27 M 1,17 L 2,17 M 16,11 L 16,12 M 7,3 L 8,3 M 8,28 L 7,29 M 10,34 L 9,35 M 31,4 L 30,5 M 29,40 L 30,40 M 4,39 L 4,40 M 6,12 L 6,13 M 17,1 L 17,2 M 7,13 L 6,14 M 7,8 L 6,9 M 9,23 L 10,24 M 29,20 L 28,21 M 2,12 L 1,13 M 6,41 L 5,42 M 8,10 L 8,11 M 19,37 L 18,38 M 21,33 L 20,34 M 10,41 L 9,42 M 12,9 L 13,9 M 13,0 L 14,0 M 12,17 L 13,17 M 19,43 L 20,43 M 21,5 L 20,6 M 31,17 L 31,18 M 1,33 L 2,33 M 12,25 L 13,25 M 18,1 L 17,2 M 25,18 L 24,19 M 14,38 L 13,39 M 19,35 L 19,36 M 21,3 L 20,4 M 20,19 L 19,20 M 12,23 L 11,24 M 7,1 L 6,2 M 1,14 L 0,15 M 5,7 L 6,7 M 10,3 L 11,4 M 13,25 L 12,26 M 23,36 L 22,37 M 3,29 L 2,30 M 22,9 L 22,10 M 28,16 L 27,17 M 20,23 L 20,24 M 12,34 L 11,35 M 29,18 L 28,19 M 6,26 L 5,27 M 0,2 L 1,2 M 1,37 L 1,38 M 15,2 L 14,3 M 10,7 L 9,8 M 23,18 L 23,19 M 20,16 L 19,17 M 16,32 L 16,33 M 21,13 L 22,13 M 18,11 L 17,12 M 21,18 L 21,19 M 14,13 L 15,13 M 28,6 L 28,7 M 26,37 L 25,38 M 2,0 L 3,0 M 27,3 L 26,4 M 27,9 L 28,9 M 1,19 L 1,20 M 19,5 L 20,5 M 12,11 L 11,12 M 1,4 L 0,5 M 19,13 L 18,14 M 4,9 L 3,10 M 26,1 L 26,2 M 8,17 L 9,17 M 8,26 L 9,26 M 20,11 L 20,12 M 23,30 L 24,31 M 9,0 L 9,1 M 9,10 L 10,10 M 21,20 L 22,20 M 17,19 L 16,20 M 9,20 L 9,21 M 10,5 L 9,6 M 18,33 L 19,33 M 27,15 L 26,16 M 13,36 L 13,37 M 28,14 L 28,15 M 16,33 L 15,34 M 21,0 L 21,1 M 4,42 L 5,42 M 0,27 L 1,27 M 8,21 L 8,22 M 15,23 L 14,24 M 4,15 L 5,15 M 15,20 L 14,21 M 8,7 L 7,8 M 2,23 L 2,24 M 15,19 L 16,20 M 10,6 L 10,7 M 15,8 L 14,9 M 31,39 L 30,40 M 24,29 L 25,29 M 14,32 L 15,32 M 5,15 L 5,16 M 30,23 L 31,23 M 26,16 L 26,17 M 13,6 L 12,7 M 20,28 L 21,28 M 14,23 L 15,23 M 8,17 L 7,18 M 8,15 L 7,16 M 9,36 L 10,37 M 24,5 L 24,6 M 8,42 L 8,43 M 9,17 L 8,18 M 10,12 L 11,12 M 23,35 L 23,36 M 14,37 L 14,38 M 5,0 L 6,1 M 0,7 L 0,8 M 19,14 L 18,15 M 2,34 L 1,35 M 29,12 L 29,13 M 0,6 L 1,6 M 23,12 L 22,13 M 22,16 L 23,16 M 10,30 L 9,31 M 10,12 L 9,13 M 8,16 L 8,17 M 30,10 L 29,11 M 22,42 L 21,43 M 10,15 L 9,16 M 27,9 L 26,10 M 23,7 L 24,7 M 18,16 L 18,17 M 26,26 L 25,27 M 18,10 L 17,11 M 25,19 L 25,20 M 11,6 L 12,7 M 16,1 L 16,2 M 10,37 L 9,38 M 18,2 L 17,3 M 17,6 L 18,6 M 8,38 L 8,39 M 24,17 L 25,17 M 26,14 L 25,15 M 5,32 L 4,33 M 8,5 L 8,6 M 2,43 L 3,43 M 6,13 L 5,14 M 12,26 L 12,27 M 8,2 L 8,3 M 4,32 L 3,33 M 25,6 L 24,7 M 13,0 L 12,1 M 12,13 L 11,14 M 9,18 L 10,18 M 6,37 L 7,38 M 5,24 L 6,24 M 6,29 L 7,29 M 12,27 L 12,28 M 4,14 L 3,15 M 4,21 L 3,22 M 17,31 L 18,32 M 4,34 L 3,35 M 22,3 L 21,4 M 1,6 L 0,7 M 3,31 L 4,32 M 17,24 L 18,24 M 29,15 L 30,16 M 12,0 L 12,1 M 2,0 L 1,1 M 0,21 L 1,21 M 10,8 L 9,9 M 24,4 L 25,4 M 12,2 L 13,2 M 11,7 L 11,8 M 22,1 L 21,2 M 13,15 L 12,16 M 18,5 L 18,6 M 1,2 L 0,3 M 2,1 L 3,2 M 29,2 L 29,3 M 22,27 L 23,28 M 21,18 L 20,19 M 24,0 L 24,1 M 14,2 L 15,2 M 10,27 L 10,28 M 30,16 L 31,17 M 13,32 L 14,32 M 6,1 L 6,2 M 1,18 L 0,19 M 4,26 L 3,27 M 13,9 L 14,9 M 31,10 L 31,11 M 26,9 L 26,10 M 14,27 L 14,28 M 28,15 L 29,15 M 21,39 L 22,39 M 10,24 L 11,24 M 2,2 L 1,3 M 26,22 L 26,23 M 21,26 L 22,27 M 5,23 L 4,24 M 21,2 L 21,3 M 23,16 L 22,17 M 5,37 L 4,38 M 20,40 L 19,41 M 23,19 L 23,20 M 12,32 L 11,33 M 24,6 L 25,6 M 21,13 L 21,14 M 29,32 L 29,33 M 11,26 L 12,26 M 5,18 L 5,19 M 29,13 L 30,13 M 15,22 L 16,22 M 3,19 L 4,19 M 30,0 L 29,1 M 18,14 L 17,15 M 10,26 L 10,27 M 22,2 L 21,3 M 2,27 L 3,27 M 18,9 L 19,9 M 17,18 L 16,19 M 3,33 L 2,34 M 14,19 L 15,19 M 9,16 L 8,17 M 23,2 L 24,2 M 17,26 L 16,27 M 9,14 L 10,14 M 23,10 L 24,10 M 31,41 L 30,42 M 19,3 L 18,4 M 23,30 L 22,31 M 26,24 L 27,24 M 26,29 L 27,29 M 14,17 L 13,18 M 17,17 L 18,17 M 1,35 L 0,36 M 25,13 L 24,14 M 27,25 L 28,25 M 14,31 L 14,32 M 9,0 L 8,1 M 17,8 L 17,9 M 23,39 L 23,40 M 16,36 L 15,37 M 21,29 L 20,30 M 5,22 L 6,22 M 19,1 L 19,2 M 18,17 L 19,17 M 26,9 L 25,10 M 10,21 L 10,22 M 16,5 L 17,5 M 18,3 L 19,3 M 19,8 L 18,9 M 8,29 L 8,30 M 9,16 L 10,16 M 21,31 L 22,31 M 8,10 L 7,11 M 3,35 L 2,36 M 15,15 L 16,15 M 7,29 L 6,30 M 28,1 L 27,2 M 23,41 L 22,42 M 17,3 L 16,4 M 24,24 L 23,25 M 6,11 L 6,12 M 7,29 L 8,30 M 5,21 L 6,21 M 27,33 L 26,34 M 23,40 L 23,41 M 20,1 L 21,1 M 29,3 L 30,3 M 3,24 L 2,25 M 18,26 L 19,26 M 20,15 L 21,16 M 24,34 L 25,34 M 14,30 L 15,30 M 28,10 L 28,11 M 31,0 L 31,1 M 16,36 L 17,36 M 25,20 L 25,21 M 30,15 L 31,15 M 10,32 L 10,33 M 14,29 L 13,30 M 30,28 L 31,29 M 6,12 L 7,12 M 13,21 L 14,21 M 15,28 L 16,28 M 31,20 L 31,21 M 25,32 L 25,33 M 16,20 L 17,20 M 3,20 L 4,21 M 1,8 L 2,9 M 29,42 L 29,43 M 27,0 L 27,1 M 14,25 L 13,26 M 27,0 L 28,0 M 17,5 L 18,5 M 20,27 L 20,28 M 11,39 L 10,40 M 14,33 L 13,34 M 9,5 L 8,6 M 29,20 L 29,21 M 20,41 L 21,41 M 27,5 L 26,6 M 27,2 L 27,3 M 27,25 L 28,26 M 7,34 L 6,35 M 7,35 L 8,35 M 14,41 L 15,41 M 19,3 L 19,4 M 1,16 L 2,16 M 17,7 L 18,7 M 2,18 L 3,18 M 30,9 L 30,10 M 26,22 L 27,22 M 30,11 L 31,11 M 11,28 L 12,28 M 25,36 L 26,36 M 30,38 L 29,39 M 17,39 L 18,39 M 2,24 L 2,25 M 16,40 L 16,41 M 9,42 L 10,43 M 27,42 L 26,43 M 25,20 L 24,21 M 1,14 L 2,14 M 11,35 L 10,36 M 1,23 L 1,24 M 2,36 L 3,37 M 21,36 L 21,37 M 14,43 L 15,43 M 17,34 L 18,35 M 23,19 L 22,20 M 5,37 L 6,37 M 19,36 L 19,37 M 16,38 L 17,39 M 27,35 L 28,35 M 25,33 L 25,34 M 23,22 L 23,23 M 2,20 L 3,21 M 25,42 L 24,43 M 30,32 L 29,33 M 16,5 L 16,6 M 4,22 L 5,22 M 10,13 L 10,14 M 5,42 L 5,43 M 5,34 L 5,35 M 27,13 L 26,14 M 24,31 L 24,32 M 18,35 L 17,36 M 7,34 L 8,35 M 26,36 L 27,37 M 29,4 L 30,4 M 1,0 L 2,0 M 1,38 L 1,39 M 29,7 L 30,8 M 11,39 L 12,39 M 18,23 L 19,23 M 17,36 L 17,37 M 13,5 L 14,6 M 17,39 L 16,40 M 27,27 L 28,27 M 21,31 L 20,32 M 10,33 L 10,34 M 10,41 L 11,41 M 9,30 L 10,30 M 29,18 L 30,18 M 0,40 L 1,41 M 0,39 L 0,40 M 24,28 L 24,29 M 20,40 L 20,41 M 15,5 L 15,6 M 7,9 L 8,9 M 17,28 L 16,29 M 16,33 L 17,33 M 27,29 L 28,30 M 23,34 L 23,35 M 12,6 L 12,7 M 5,43 L 6,43 M 23,4 L 23,5 M 23,38 L 24,38 M 30,25 L 31,25 M 18,40 L 18,41 M 24,2 L 24,3 M 14,28 L 14,29 M 9,42 L 8,43 M 27,38 L 26,39 M 30,27 L 30,28 M 14,35 L 15,35 M 1,0 L 0,1 M 29,23 L 29,24 M 31,25 L 31,26 M 31,22 L 31,23 M 0,28 L 0,29 M 30,34 L 29,35 M 23,36 L 24,36 M 21,34 L 20,35 M 31,29 L 31,30 M 10,40 L 10,41 M 0,0 L 1,0 M 20,7 L 20,8 M 12,11 L 13,11 M 30,32 L 31,32 M 12,35 L 12,36 M 30,36 L 29,37 M 18,29 L 18,30 M 23,43 L 24,43 M 18,41 L 19,41 M 9,31 L 9,32 M 18,39 L 18,40 M 18,41 L 18,42 M 16,35 L 16,36 M 31,14 L 31,15 M 0,26 L 1,26 M 22,39 L 23,39 M 24,36 L 25,36 M 31,32 L 31,33 M 11,18 L 12,18 M 27,37 L 28,37 M 26,37 L 27,37 M 20,43 L 21,43 M 22,37 L 23,38 M 1,43 L 2,43 M 28,41 L 29,42 M 29,23 L 30,23 M 31,11 L 31,12 M 29,39 L 29,40 "/>
</svg>
